<svg width="24" height="24" viewBox="0 0 24 24" xmlns="http://www.w3.org/2000/svg"><g fill-rule="nonzero" fill="#FFF"><path d="M12 22c5.523 0 10-4.477 10-10S17.523 2 12 2 2 6.477 2 12s4.477 10 10 10zm0 2C5.373 24 0 18.627 0 12S5.373 0 12 0s12 5.373 12 12-5.373 12-12 12z"/><path d="M8.511 18.984a4.85 4.85 0 0 1 1.203-4.935 3.62 3.62 0 0 0 3.702 4.935 5.466 5.466 0 0 0 4.113-8.226 3.708 3.708 0 0 1-2.468 3.29A7.362 7.362 0 0 0 10.948 5c0 3.436-4.7 5.62-4.935 9.049a5.408 5.408 0 0 0 2.498 4.935z"/></g></svg>