<svg xmlns="http://www.w3.org/2000/svg" width="24" height="17" viewBox="0 0 24 17">
  <title>slowmo</title>
  <path class="a" d="M12,3A12,12,0,0,0,0,15v4.5a.5.5,0,0,0,.5.5h23a.5.5,0,0,0,.5-.5V15A12,12,0,0,0,12,3Zm2.41,4.88L15.17,6a.5.5,0,1,1,.92.38l-.77,1.85a.5.5,0,0,1-.46.31.52.52,0,0,1-.19,0,.5.5,0,0,1-.27-.65ZM11.5,5.5a.5.5,0,0,1,1,0v2a.5.5,0,0,1-1,0v-2ZM4.5,16h-2a.5.5,0,0,1,0-1h2a.5.5,0,0,1,0,1Zm1-3.68a.5.5,0,0,1-.65.27L3,11.83a.5.5,0,0,1,.38-.92l1.85.77a.5.5,0,0,1,.27.65ZM7,10.05a.5.5,0,0,1-.71,0L4.93,8.64a.5.5,0,1,1,.71-.71L7.05,9.34a.5.5,0,0,1,0,.71ZM9.32,8.53a.52.52,0,0,1-.19,0,.5.5,0,0,1-.46-.31L7.9,6.41A.5.5,0,1,1,8.83,6l.77,1.85a.5.5,0,0,1-.27.65ZM14,15a2,2,0,1,1-2-2,2,2,0,0,1,1,.28l4.65-4.65a.5.5,0,0,1,.71.71L13.72,14A2,2,0,0,1,14,15Zm4.47-2.68a.5.5,0,0,1,.27-.65l1.85-.76a.5.5,0,1,1,.38.92l-1.85.77a.52.52,0,0,1-.19,0,.5.5,0,0,1-.46-.31Zm3,3.68h-2a.5.5,0,0,1,0-1h2a.5.5,0,1,1,0,1Z" transform="translate(0 -3)"/>
  <path class="a" d="M12,3A12,12,0,0,0,0,15v4.5a.5.5,0,0,0,.5.5h23a.5.5,0,0,0,.5-.5V15A12,12,0,0,0,12,3Zm2.41,4.88L15.17,6a.5.5,0,1,1,.92.38l-.77,1.85a.5.5,0,0,1-.46.31.52.52,0,0,1-.19,0,.5.5,0,0,1-.27-.65ZM11.5,5.5a.5.5,0,0,1,1,0v2a.5.5,0,0,1-1,0v-2ZM4.5,16h-2a.5.5,0,0,1,0-1h2a.5.5,0,0,1,0,1Zm1-3.68a.5.5,0,0,1-.65.27L3,11.83a.5.5,0,0,1,.38-.92l1.85.77a.5.5,0,0,1,.27.65ZM7,10.05a.5.5,0,0,1-.71,0L4.93,8.64a.5.5,0,1,1,.71-.71L7.05,9.34a.5.5,0,0,1,0,.71ZM9.32,8.53a.52.52,0,0,1-.19,0,.5.5,0,0,1-.46-.31L7.9,6.41A.5.5,0,1,1,8.83,6l.77,1.85a.5.5,0,0,1-.27.65ZM14,15a2,2,0,1,1-2-2,2,2,0,0,1,1,.28l4.65-4.65a.5.5,0,0,1,.71.71L13.72,14A2,2,0,0,1,14,15Zm4.47-2.68a.5.5,0,0,1,.27-.65l1.85-.76a.5.5,0,1,1,.38.92l-1.85.77a.52.52,0,0,1-.19,0,.5.5,0,0,1-.46-.31Zm3,3.68h-2a.5.5,0,0,1,0-1h2a.5.5,0,1,1,0,1Z" transform="translate(0 -3)"/>
</svg>
