<?xml version="1.0" encoding="utf-8"?>
<!-- Generator: Adobe Illustrator 21.1.0, SVG Export Plug-In . SVG Version: 6.00 Build 0)  -->
<svg version="1.1" id="Layer_1" xmlns="http://www.w3.org/2000/svg" xmlns:xlink="http://www.w3.org/1999/xlink" x="0px" y="0px"
	 viewBox="0 0 24 24" style="enable-background:new 0 0 24 24;" xml:space="preserve">
<title>text</title>
<path d="M10.4,19l-1.1-3.4h-5l-1,3.4h-3L5.2,4.9h3.5L13.6,19H10.4z M6.8,7.6L5,13.4h3.7L6.8,7.6L6.8,7.6z M18.5,17
	c1.2,0.1,2.2-0.7,2.4-1.9c0,0,0,0,0-0.1v-0.8l-2.3,0.2c-1.2,0.1-1.8,0.5-1.8,1.3C16.8,16.5,17.5,17,18.5,17z M17.6,19.1
	c-2.1,0-3.6-1.3-3.6-3.2s1.5-3.1,4.2-3.2l2.7-0.2v-0.7c0-1-0.7-1.6-1.9-1.6c-0.9-0.1-1.7,0.5-1.9,1.3h-2.6C14.6,9.5,16.5,8,19.1,8
	s4.6,1.4,4.6,3.6V19H21v-1.7h-0.1C20.2,18.5,18.9,19.2,17.6,19.1L17.6,19.1z"/>
<path d="M10.4,19l-1.1-3.4h-5l-1,3.4h-3L5.2,4.9h3.5L13.6,19H10.4z M6.8,7.6L5,13.4h3.7L6.8,7.6L6.8,7.6z M18.5,17
	c1.2,0.1,2.2-0.7,2.4-1.9c0,0,0,0,0-0.1v-0.8l-2.3,0.2c-1.2,0.1-1.8,0.5-1.8,1.3C16.8,16.5,17.5,17,18.5,17z M17.6,19.1
	c-2.1,0-3.6-1.3-3.6-3.2s1.5-3.1,4.2-3.2l2.7-0.2v-0.7c0-1-0.7-1.6-1.9-1.6c-0.9-0.1-1.7,0.5-1.9,1.3h-2.6C14.6,9.5,16.5,8,19.1,8
	s4.6,1.4,4.6,3.6V19H21v-1.7h-0.1C20.2,18.5,18.9,19.2,17.6,19.1L17.6,19.1z"/>
</svg>
