<svg xmlns="http://www.w3.org/2000/svg" width="23.41" height="14.22" viewBox="0 0 23.41 14.22">
  <title>text</title>
  <path class="a" d="M10.4,19,9.33,15.58h-5L3.3,19h-3L5.17,4.91H8.63L13.54,19ZM6.82,7.6,5,13.38H8.69L6.88,7.6ZM18.51,17a2.16,2.16,0,0,0,2.37-2v-.79l-2.26.16c-1.19.08-1.83.55-1.83,1.34S17.48,17,18.51,17Zm-.93,2.08c-2.07,0-3.62-1.3-3.62-3.22s1.49-3.06,4.24-3.22l2.69-.17V11.8c0-1-.71-1.6-1.88-1.6a1.75,1.75,0,0,0-1.89,1.33H14.5c.08-2.05,1.93-3.47,4.62-3.47s4.57,1.42,4.57,3.56V19H20.93V17.34h-.06A3.68,3.68,0,0,1,17.58,19.13Z" transform="translate(-0.27 -4.91)"/>
  <path class="a" d="M10.4,19,9.33,15.58h-5L3.3,19h-3L5.17,4.91H8.63L13.54,19ZM6.82,7.6,5,13.38H8.69L6.88,7.6ZM18.51,17a2.16,2.16,0,0,0,2.37-2v-.79l-2.26.16c-1.19.08-1.83.55-1.83,1.34S17.48,17,18.51,17Zm-.93,2.08c-2.07,0-3.62-1.3-3.62-3.22s1.49-3.06,4.24-3.22l2.69-.17V11.8c0-1-.71-1.6-1.88-1.6a1.75,1.75,0,0,0-1.89,1.33H14.5c.08-2.05,1.93-3.47,4.62-3.47s4.57,1.42,4.57,3.56V19H20.93V17.34h-.06A3.68,3.68,0,0,1,17.58,19.13Z" transform="translate(-0.27 -4.91)"/>
</svg>
