<svg xmlns="http://www.w3.org/2000/svg" width="24" height="20" viewBox="0 0 24 20">
  <title>trim</title>
  <path class="a" d="M24,5.62a2.44,2.44,0,0,0-1.5-1.06,2.51,2.51,0,0,0-1.84.22L9,11.42,5.65,9.71A4,4,0,0,0,8.25,6,4.07,4.07,0,0,0,4.12,2,4.07,4.07,0,0,0,0,6a4.06,4.06,0,0,0,4,4l.05,0L7.9,12,4,14a4,4,0,1,0,.14,8,4.07,4.07,0,0,0,4.12-4,4,4,0,0,0-2.6-3.72l3.51-1.81,11.42,6.7a2.38,2.38,0,0,0,1.18.3,2.72,2.72,0,0,0,.66-.08,2.44,2.44,0,0,0,1.5-1.06.25.25,0,0,0-.09-.34L13.66,11.85,23.87,6A.25.25,0,0,0,24,5.62ZM1,6A3,3,0,1,1,4,9,3,3,0,0,1,1,6ZM7,18a3,3,0,1,1-3-3H4a3,3,0,0,1,3,3Z" transform="translate(0 -2)"/>
  <path class="a" d="M24,5.62a2.44,2.44,0,0,0-1.5-1.06,2.51,2.51,0,0,0-1.84.22L9,11.42,5.65,9.71A4,4,0,0,0,8.25,6,4.07,4.07,0,0,0,4.12,2,4.07,4.07,0,0,0,0,6a4.06,4.06,0,0,0,4,4l.05,0L7.9,12,4,14a4,4,0,1,0,.14,8,4.07,4.07,0,0,0,4.12-4,4,4,0,0,0-2.6-3.72l3.51-1.81,11.42,6.7a2.38,2.38,0,0,0,1.18.3,2.72,2.72,0,0,0,.66-.08,2.44,2.44,0,0,0,1.5-1.06.25.25,0,0,0-.09-.34L13.66,11.85,23.87,6A.25.25,0,0,0,24,5.62ZM1,6A3,3,0,1,1,4,9,3,3,0,0,1,1,6ZM7,18a3,3,0,1,1-3-3H4a3,3,0,0,1,3,3Z" transform="translate(0 -2)"/>
</svg>
