<svg xmlns="http://www.w3.org/2000/svg" width="32" height="32" viewBox="0 0 32 32">
  <g fill="none" fill-rule="evenodd">
    <path fill="#009CE3" d="M2,16 C2,23.72 8.281,30 16,30 C23.72,30 30,23.72 30,16 C30,8.28 23.72,2 16,2 C8.281,2 2,8.28 2,16 Z"/>
    <path fill="#FFF" d="M21.265,10.281 L13.553,19.473 L10.485,16.9 C10.069,16.55 9.434,16.602 9.079,17.024 L8.436,17.792 C8.078,18.219 8.135,18.844 8.557,19.198 L13.158,23.059 C13.366,23.233 13.629,23.308 13.885,23.286 L13.887,23.288 C14.142,23.265 14.388,23.144 14.565,22.933 L23.563,12.209 C23.921,11.784 23.864,11.155 23.441,10.801 L22.674,10.156 C22.485,9.999 22.258,9.922 22.032,9.922 C21.746,9.922 21.463,10.044 21.265,10.281 Z"/>
  </g>
</svg>
