<svg xmlns="http://www.w3.org/2000/svg" width="32" height="32" viewBox="0 0 32 32"><g fill="none" fill-rule="evenodd"><path fill="#009CE3" d="M2 16c0 7.72 6.281 14 14 14 7.72 0 14-6.28 14-14S23.72 2 16 2C8.281 2 2 8.28 2 16z"/><path fill="#FFF" d="M21.265 10.281l-7.712 9.192-3.068-2.573a1.003 1.003 0 0 0-1.406.124l-.643.768a.994.994 0 0 0 .121 1.406l4.601 3.861a.998.998 0 0 0 .727.227l.002.002a1 1 0 0 0 .678-.355l8.998-10.724a.996.996 0 0 0-.122-1.408l-.767-.645a1.001 1.001 0 0 0-1.409.125z"/></g></svg>