<?xml version="1.0" encoding="UTF-8"?>
<svg width="12px" height="12px" viewBox="0 0 12 12" version="1.1" xmlns="http://www.w3.org/2000/svg" xmlns:xlink="http://www.w3.org/1999/xlink">
    <!-- Generator: Sketch 41.2 (35397) - http://www.bohemiancoding.com/sketch -->
    <title>Shape</title>
    <desc>Created with Sketch.</desc>
    <defs></defs>
    <g id="Page-1" stroke="none" stroke-width="1" fill="none" fill-rule="evenodd">
        <g id="02---Post-Trim-Toast-Copy" transform="translate(-631.000000, -47.000000)" fill="#687581">
            <g id="Group" transform="translate(8.000000, 8.000000)">
                <path d="M629.706985,45.0000625 L634.853378,39.8536161 C635.048874,39.6581181 635.048874,39.3421214 634.853378,39.1466235 C634.657882,38.9511255 634.341889,38.9511255 634.146393,39.1466235 L629,44.2930699 L623.853607,39.1466235 C623.658111,38.9511255 623.342118,38.9511255 623.146622,39.1466235 C622.951126,39.3421214 622.951126,39.6581181 623.146622,39.8536161 L628.293015,45.0000625 L623.146622,50.1465089 C622.951126,50.3420069 622.951126,50.6580036 623.146622,50.8535015 C623.24412,50.9510005 623.372117,51 623.500115,51 C623.628112,51 623.756109,50.9510005 623.853607,50.8535015 L629,45.7070551 L634.146393,50.8535015 C634.243891,50.9510005 634.371888,51 634.499885,51 C634.627883,51 634.75588,50.9510005 634.853378,50.8535015 C635.048874,50.6580036 635.048874,50.3420069 634.853378,50.1465089 L629.706985,45.0000625 L629.706985,45.0000625 Z" id="Shape"></path>
            </g>
        </g>
    </g>
</svg>