<?xml version="1.0" encoding="UTF-8"?>
<svg width="26px" height="26px" viewBox="0 0 26 26" version="1.1" xmlns="http://www.w3.org/2000/svg" xmlns:xlink="http://www.w3.org/1999/xlink">
    <!-- Generator: Sketch 41.2 (35397) - http://www.bohemiancoding.com/sketch -->
    <title>Confirmation</title>
    <desc>Created with Sketch.</desc>
    <defs></defs>
    <g id="Uniform-Icons" stroke="none" stroke-width="1" fill="none" fill-rule="evenodd">
        <g id="Icons---Feedback" transform="translate(-35.000000, -179.000000)" fill="#000000">
            <g id="Confirmation" transform="translate(32.000000, 176.000000)">
                <path d="M16,3 C8.83158333,3 3,8.83158333 3,16 C3,23.1684167 8.83158333,29 16,29 C23.1673333,29 29,23.1684167 29,16 C29,8.83158333 23.1673333,3 16,3 Z M14.4835654,23.2875733 C14.7349366,23.2425421 14.9689648,23.1012939 15.1272928,22.8751781 L23.1563629,11.4084776 C23.4754096,10.9528318 23.3636925,10.3318126 22.9112873,10.0150351 C22.455728,9.69604902 21.8351125,9.80852516 21.5180588,10.2613247 L14.0620651,20.9095872 L9.96387215,18.0400016 C9.51825849,17.7279796 8.89035395,17.8348755 8.57357644,18.2872807 C8.2545904,18.7428399 8.36565768,19.362469 8.81671928,19.6783057 L13.7364971,23.1231712 C13.9593042,23.2791824 14.2276842,23.3304639 14.4799595,23.2861917 L14.4835654,23.2875733 Z" id="confirmation"></path>
            </g>
        </g>
    </g>
</svg>