<?xml version="1.0" encoding="UTF-8"?>
<svg width="24px" height="24px" viewBox="0 0 24 24" version="1.1" xmlns="http://www.w3.org/2000/svg" xmlns:xlink="http://www.w3.org/1999/xlink">
    <!-- Generator: Sketch 43.2 (39069) - http://www.bohemiancoding.com/sketch -->
    <title>hle/icon/spot/circle-electric</title>
    <desc>Created with Sketch.</desc>
    <defs></defs>
    <g id="Symbols" stroke="none" stroke-width="1" fill="none" fill-rule="evenodd">
        <g id="hle/icon/spot/circle-electric" fill-rule="nonzero" fill="#FFFFFF">
            <g id="CircleElectric">
                <path d="M12,22 L12,22 C17.5228475,22 22,17.5228475 22,12 C22,6.4771525 17.5228475,2 12,2 C6.4771525,2 2,6.4771525 2,12 C2,17.5228475 6.4771525,22 12,22 L12,22 Z M12,24 L12,24 C5.372583,24 0,18.627417 0,12 C0,5.372583 5.372583,0 12,0 C18.627417,0 24,5.372583 24,12 C24,18.627417 18.627417,24 12,24 L12,24 Z" id="outer"></path>
                <polygon id="flash" points="15.2278154 10.5004308 15.2288 10.4996923 13.2484923 10.4996923 15.2288 4 10.2776615 10.4996923 8 13.4995692 9.38732308 13.4995692 9.38633846 13.5003077 11.3668923 13.5003077 9.38633846 20 14.3377231 13.5003077 16.6153846 10.5004308"></polygon>
            </g>
        </g>
    </g>
</svg>