<?xml version="1.0" encoding="UTF-8"?>
<svg width="24px" height="24px" viewBox="0 0 24 24" version="1.1" xmlns="http://www.w3.org/2000/svg" xmlns:xlink="http://www.w3.org/1999/xlink">
    <!-- Generator: Sketch 43.2 (39069) - http://www.bohemiancoding.com/sketch -->
    <title>hle/icon/spot/circle-fire</title>
    <desc>Created with Sketch.</desc>
    <defs></defs>
    <g id="Symbols" stroke="none" stroke-width="1" fill="none" fill-rule="evenodd">
        <g id="hle/icon/spot/circle-fire" fill-rule="nonzero" fill="#FFFFFF">
            <g id="CircleFire">
                <path d="M12,22 L12,22 C17.5228475,22 22,17.5228475 22,12 C22,6.4771525 17.5228475,2 12,2 C6.4771525,2 2,6.4771525 2,12 C2,17.5228475 6.4771525,22 12,22 L12,22 Z M12,24 L12,24 C5.372583,24 0,18.627417 0,12 C0,5.372583 5.372583,0 12,0 C18.627417,0 24,5.372583 24,12 C24,18.627417 18.627417,24 12,24 L12,24 Z" id="outer"></path>
                <path d="M8.51140895,18.9843347 C7.94989678,17.2438609 8.41516382,15.335575 9.71439078,14.0486872 C9.25142704,15.2187647 9.42943939,16.5454668 10.1844289,17.5521743 C10.9394185,18.5588819 12.1631301,19.1011451 13.4161264,18.9843347 C15.2656781,18.7847701 16.8867093,17.6581262 17.7186949,15.9943195 C18.5506806,14.3303481 18.4792782,12.3575698 17.5291661,10.7582555 C17.4460827,12.252605 16.472773,13.5505158 15.0613423,14.0486872 C16.240633,10.4224669 14.4559029,6.49583025 10.9483027,5 C10.9483027,8.43570426 6.24709837,10.62088 6.01265511,14.0486872 C5.87725385,16.0277173 6.83625017,17.9218543 8.51140895,18.9843347 L8.51140895,18.9843347 Z" id="fire"></path>
            </g>
        </g>
    </g>
</svg>